# xmcd
# 
# Track frame offsets:
#     150
#     17647
#     39273
#     52844
# 
# Disc length: 843
# 
# Revision: 1
# Processed by: cddbd v1.5.2PL0 Copyright (c) Steve Scherf et al.
# Submitted via: fre:ac v1.0.17
# 
DISCID=21034904
DTITLE=阿部芙蓉美 - ワン ナイト トリップ EP
DYEAR=0
DGENRE=
TTITLE0=trip -うちへかえろ-　
TTITLE1=journey (english version)　
TTITLE2=moon river
TTITLE3=みんなのブルーズ 
EXTD=
EXTT0=
EXTT1=
EXTT2=
EXTT3=
PLAYORDER=
